<svg xmlns="http://www.w3.org/2000/svg" version="1.1" xmlns:xlink="http://www.w3.org/1999/xlink" xmlns:svgjs="http://svgjs.com/svgjs" width="512" height="512" x="0" y="0" viewBox="0 0 433.664 433.664" style="enable-background:new 0 0 512 512" xml:space="preserve"><g><path d="M258.048 37.658h-82.944c-8.483 0-15.36 6.877-15.36 15.36v327.526c0 8.483 6.877 15.36 15.36 15.36h82.944c8.483 0 15.36-6.877 15.36-15.36V53.018c0-8.484-6.877-15.36-15.36-15.36zM418.304 228.634H335.36c-8.483 0-15.36 6.877-15.36 15.36v136.653c0 8.483 6.877 15.36 15.36 15.36h82.944c8.483 0 15.36-6.877 15.36-15.36V243.994c0-8.484-6.877-15.36-15.36-15.36zM98.304 160.026H15.36c-8.483 0-15.36 6.877-15.36 15.36v205.056c0 8.483 6.877 15.36 15.36 15.36h82.944c8.483 0 15.36-6.877 15.36-15.36V175.386c0-8.483-6.877-15.36-15.36-15.36z" fill="#ffffff" data-original="#000000"></path></g></svg>