<svg xmlns="http://www.w3.org/2000/svg" version="1.1" xmlns:xlink="http://www.w3.org/1999/xlink" xmlns:svgjs="http://svgjs.com/svgjs" width="512" height="512" x="0" y="0" viewBox="0 0 64 64" style="enable-background:new 0 0 512 512" xml:space="preserve" class=""><g><path d="m29.43 47.14 1.37-4.78a2.389 2.389 0 0 1 .93-1.31C53.19 19.6 52 20.633 53 20.1V8a3.009 3.009 0 0 0-3-3H14a3.009 3.009 0 0 0-3 3v48a3.009 3.009 0 0 0 3 3h36a3.009 3.009 0 0 0 3-3V41.51l-.35.35a3.075 3.075 0 0 1-4.24 0 2.979 2.979 0 0 1-.59-.84l-8.06 8.06a2.404 2.404 0 0 1-1.36.94l-4.73 1.36-.53.54a3.005 3.005 0 1 1-4.26-4.24zM17.72 13h26a1 1 0 0 1 0 2h-26a1 1 0 0 1 0-2zm0 5h26a1 1 0 0 1 0 2h-26a1 1 0 0 1 0-2zm0 5h26a1 1 0 0 1 0 2h-26a1 1 0 0 1 0-2zm0 7a1 1 0 0 1 0-2h11a1 1 0 0 1 0 2z" fill="#ffffff" data-original="#000000" class=""></path><path d="m32.56 43.47 4.78 4.78-4.72 1.35-.9.91a1.004 1.004 0 0 1-1.42-1.42l.91-.9zM53.68 32.33l-.68.68-14.04 14.04-5.2-5.2 14.72-14.72 5.2 5.2z" fill="#ffffff" data-original="#000000" class=""></path><path d="M61.26 30.43 51.24 40.45a1 1 0 0 1-1.41-1.42l7.92-7.92-1.43-1.42-1.23 1.23-5.2-5.2 3.27-3.27a3.677 3.677 0 0 1 5.2 5.2l-.62.62 1.42 1.43.68-.69a1.004 1.004 0 0 1 1.42 1.42z" fill="#ffffff" data-original="#000000" class=""></path></g></svg>