<svg xmlns="http://www.w3.org/2000/svg" version="1.1" xmlns:xlink="http://www.w3.org/1999/xlink" xmlns:svgjs="http://svgjs.com/svgjs" width="512" height="512" x="0" y="0" viewBox="0 0 24 24" style="enable-background:new 0 0 512 512" xml:space="preserve"><g><path d="M18.882 2.75c.756 0 1.479.286 2.013.791.55.519.855 1.225.855 1.959v10c0 .734-.305 1.44-.855 1.959a2.932 2.932 0 0 1-2.013.791H5.118a2.932 2.932 0 0 1-2.013-.791A2.691 2.691 0 0 1 2.25 15.5v-10c0-.734.305-1.44.855-1.959a2.932 2.932 0 0 1 2.013-.791zM7 12.75a.75.75 0 0 0 1.5 0V11.5H10v1.25a.75.75 0 0 0 1.5 0v-3a2.25 2.25 0 1 0-4.5 0zM10 10H8.5v-.25a.75.75 0 0 1 1.5 0zm2.5 2.75c0 .414.336.75.75.75h1.5A2.25 2.25 0 0 0 17 11.25v-1.5a2.25 2.25 0 0 0-2.25-2.25h-1.5a.75.75 0 0 0-.75.75zM14 12V9h.75a.75.75 0 0 1 .75.75v1.5a.75.75 0 0 1-.75.75zM22 19.75a.75.75 0 0 1 0 1.5H2a.75.75 0 0 1 0-1.5z" fill="#ffffff" data-original="#000000"></path></g></svg>