<svg xmlns="http://www.w3.org/2000/svg" version="1.1" xmlns:xlink="http://www.w3.org/1999/xlink" xmlns:svgjs="http://svgjs.com/svgjs" width="512" height="512" x="0" y="0" viewBox="0 0 601.705 601.705" style="enable-background:new 0 0 512 512" xml:space="preserve"><g><path fill-rule="evenodd" d="M530.516 536.872H138.51c-37.409 0-74.936-28.189-85.371-64.131L2.76 299.212c-11.531-39.719 14.239-74.064 55.593-74.064h8.969v-89.121c0-39.321 31.875-71.194 71.2-71.194h142.509c16.239 0 34.092 10.322 42.129 24.386l18.013 31.523c1.678 2.935 7.718 6.436 11.075 6.436h178.146c39.358 0 71.311 31.918 71.311 71.209v267.276c0 36.229-27.04 66.137-62.042 70.626a70.595 70.595 0 0 1-9.147.583zM102.947 225.148h347.412c37.409 0 74.936 28.189 85.371 64.131l30.349 104.536V198.387c0-19.607-15.994-35.583-35.685-35.583H352.248c-16.134 0-33.983-10.344-42.007-24.386l-18.013-31.523c-1.683-2.945-7.721-6.436-11.197-6.436H138.522c-19.65 0-35.575 15.923-35.575 35.568z" clip-rule="evenodd" fill="#ffffff" data-original="#000000"></path></g></svg>