<svg xmlns="http://www.w3.org/2000/svg" version="1.1" xmlns:xlink="http://www.w3.org/1999/xlink" xmlns:svgjs="http://svgjs.com/svgjs" width="512" height="512" x="0" y="0" viewBox="0 0 60 60" style="enable-background:new 0 0 512 512" xml:space="preserve"><g><path d="M52.03 18.54 30.52 5.15c-.32-.2-.73-.2-1.05 0L7.96 18.54c-.29.18-.47.5-.47.85v3.88c0 .55.45 1 1 1H51.5c.55 0 1-.45 1-1v-3.88c0-.35-.18-.67-.47-.85zM30 20.57c-2.29 0-4.15-1.86-4.15-4.15s1.86-4.15 4.15-4.15 4.15 1.86 4.15 4.15-1.86 4.15-4.15 4.15zM40.53 26.27h7.4v15.25h-7.4zM26.3 26.27h7.4v15.25h-7.4zM12.06 26.27h7.4v15.25h-7.4zM55 49.24V54c0 .55-.45 1-1 1H6c-.56 0-1-.45-1-1v-4.76c0-.55.44-1 1-1h2.4v-3.72c0-.55.45-1 1-1h41.2c.55 0 1 .45 1 1v3.72H54c.55 0 1 .45 1 1z" fill="#ffffff" data-original="#000000"></path></g></svg>