<svg xmlns="http://www.w3.org/2000/svg" version="1.1" xmlns:xlink="http://www.w3.org/1999/xlink" xmlns:svgjs="http://svgjs.com/svgjs" width="512" height="512" x="0" y="0" viewBox="0 0 512 512" style="enable-background:new 0 0 512 512" xml:space="preserve"><g><path d="M185.641 261.578 13.396 433.823c-17.86 17.86-17.86 46.921 0 64.782 8.93 8.93 20.66 13.395 32.39 13.395s23.461-4.465 32.391-13.395l172.246-172.246-64.782-64.781zM170.761 204.115 283.818 91.058l137.136 137.136L307.897 341.25zM507.588 272.474l-44.166-44.167-155.4 155.4 44.168 44.168c2.941 2.941 6.795 4.41 10.648 4.41s7.708-1.47 10.648-4.411l134.102-134.103c5.881-5.881 5.881-15.416 0-21.297zM239.526 4.411a15.061 15.061 0 0 0-21.297 0L84.127 138.514c-5.881 5.881-5.881 15.416 0 21.297l44.167 44.167 155.4-155.4-44.168-44.167z" fill="#ffffff" data-original="#000000"></path></g></svg>