<svg height="512" viewBox="0 0 32 32" width="512" xmlns="http://www.w3.org/2000/svg"><g id="Layer_2" data-name="Layer 2"><path d="m19.83 17.74a7.167 7.167 0 0 1 -8 0 7.076 7.076 0 0 1 -4.02 1.24 6.873 6.873 0 0 1 -2.81-.59v8.61a3.009 3.009 0 0 0 3 3h3.5v-6a2 2 0 0 1 2-2h5a2 2 0 0 1 2 2v6h3.5a3.009 3.009 0 0 0 3-3v-8.76a6.984 6.984 0 0 1 -7.17-.5z"/><path d="m13.5 24h5v6h-5z"/><path d="m10.159 16.4 1.694-14.4h-3.581a3 3 0 0 0 -2.845 2.051l-2.162 6.488a4.861 4.861 0 0 0 1.876 5.676 5.11 5.11 0 0 0 5.018.185z"/><path d="m28.4 10.539-2.165-6.488a3 3 0 0 0 -2.845-2.051h-3.243l1.716 14.582a4.938 4.938 0 0 0 4.66-.367 4.858 4.858 0 0 0 1.877-5.676z"/><path d="m19.168 15.725a.975.975 0 0 1 .537-.232l-1.587-13.493h-4.236l-1.6 13.6a.947.947 0 0 1 .212.129 5.128 5.128 0 0 0 6.674-.004z"/></g></svg>